<svg version="1.1" id="Layer_1" xmlns="http://www.w3.org/2000/svg" xmlns:xlink="http://www.w3.org/1999/xlink" x="0px" y="0px"
	 width="100%" viewBox="0 0 407 271" enable-background="new 0 0 407 271" xml:space="preserve">
<path fill="#FEFEFE" opacity="1.000000" stroke="none" 
	d="
M272.000000,272.000000 
	C181.333344,272.000000 91.166702,272.000000 1.000036,272.000000 
	C1.000024,181.666702 1.000024,91.333397 1.000012,1.000073 
	C136.666611,1.000048 272.333221,1.000048 407.999878,1.000024 
	C407.999908,91.333260 407.999908,181.666519 407.999939,271.999878 
	C362.833344,272.000000 317.666656,272.000000 272.000000,272.000000 
M171.785477,197.609314 
	C170.102875,214.078583 161.629868,224.417358 145.707947,229.099304 
	C141.894379,230.220703 137.937943,230.945541 134.000092,231.541138 
	C97.350136,237.084579 65.601463,217.285568 55.021572,181.789841 
	C47.559223,156.753555 47.543201,131.196533 51.694317,105.592766 
	C54.611347,87.600769 61.153732,71.342110 75.159897,58.817600 
	C91.700340,44.026905 111.221222,39.674675 132.733658,41.964802 
	C143.157486,43.074478 153.051819,45.523392 161.236298,52.626766 
	C168.567719,58.989773 172.244965,66.999367 171.727509,76.750656 
	C185.699799,76.750656 199.119827,76.750656 212.804077,76.750656 
	C213.084991,63.687325 209.323914,52.246235 201.653687,42.095684 
	C191.505966,28.666513 178.115082,19.623602 162.418045,13.992997 
	C143.897354,7.349535 124.731277,6.152494 105.275520,7.907671 
	C65.684929,11.479291 35.654739,30.032015 20.010691,66.948502 
	C0.420429,113.177185 0.872396,160.465408 20.066906,206.843475 
	C30.736826,232.624283 49.956875,250.908966 76.769402,259.734467 
	C104.744240,268.942505 133.221786,269.299408 161.209152,259.871429 
	C185.391998,251.725067 202.597260,235.667923 211.626175,211.573822 
	C216.747864,233.078125 230.297073,248.117828 249.720840,257.053528 
	C284.469543,273.039337 320.370514,272.888489 355.429840,258.675995 
	C390.238770,244.564987 408.841736,205.461716 400.065033,168.922821 
	C394.928864,147.540146 379.529449,135.843689 360.119476,129.240631 
	C339.992218,122.393539 319.288940,117.258217 298.975250,110.932190 
	C289.970398,108.127922 281.030762,104.800140 272.555389,100.691345 
	C262.640625,95.884789 257.961182,87.325439 258.986816,76.150719 
	C260.295807,61.888683 269.067322,53.066502 281.568573,48.244480 
	C299.578583,41.297600 318.090729,41.591145 336.330658,47.716850 
	C347.002563,51.300915 354.599579,58.006245 355.109222,70.455368 
	C368.760193,70.455368 382.176086,70.455368 396.101501,70.455368 
	C395.895538,67.521965 395.991791,64.855194 395.485291,62.308285 
	C390.795837,38.727394 377.120392,22.369907 354.283112,15.232206 
	C325.942230,6.374393 297.163513,6.743310 268.727448,15.539595 
	C252.579239,20.534803 239.948212,30.571127 230.250168,44.345703 
	C211.839111,70.495728 214.747391,104.596069 237.232361,124.633263 
	C246.708984,133.078232 257.935425,138.478043 269.958527,142.257736 
	C286.769928,147.542694 303.638977,152.645187 320.430023,157.993286 
	C327.543304,160.258942 334.798035,162.367157 341.509216,165.555649 
	C362.903473,175.720078 367.117615,199.013763 350.981110,216.357971 
	C344.368408,223.465561 336.333496,228.418655 326.990723,231.019043 
	C310.225037,235.685440 293.355194,235.377609 276.689789,230.759003 
	C264.696655,227.435272 256.323425,219.687988 252.514267,207.626892 
	C251.436935,204.215652 251.147522,200.555588 250.443726,196.720749 
	C243.697571,196.720749 237.053726,196.758835 230.410507,196.710175 
	C223.607956,196.660339 216.806046,196.525558 209.072296,196.288071 
	C196.983948,196.380554 184.895599,196.473038 172.522034,196.354858 
	C172.218246,196.413422 172.113419,196.590256 171.785477,197.609314 
z"/>
<path fill="#4ABF36" opacity="1.000000" stroke="none" 
	d="
M210.003845,196.427948 
	C216.806046,196.525558 223.607956,196.660339 230.410507,196.710175 
	C237.053726,196.758835 243.697571,196.720749 250.443726,196.720749 
	C251.147522,200.555588 251.436935,204.215652 252.514267,207.626892 
	C256.323425,219.687988 264.696655,227.435272 276.689789,230.759003 
	C293.355194,235.377609 310.225037,235.685440 326.990723,231.019043 
	C336.333496,228.418655 344.368408,223.465561 350.981110,216.357971 
	C367.117615,199.013763 362.903473,175.720078 341.509216,165.555649 
	C334.798035,162.367157 327.543304,160.258942 320.430023,157.993286 
	C303.638977,152.645187 286.769928,147.542694 269.958527,142.257736 
	C257.935425,138.478043 246.708984,133.078232 237.232361,124.633263 
	C214.747391,104.596069 211.839111,70.495728 230.250168,44.345703 
	C239.948212,30.571127 252.579239,20.534803 268.727448,15.539595 
	C297.163513,6.743310 325.942230,6.374393 354.283112,15.232206 
	C377.120392,22.369907 390.795837,38.727394 395.485291,62.308285 
	C395.991791,64.855194 395.895538,67.521965 396.101501,70.455368 
	C382.176086,70.455368 368.760193,70.455368 355.109222,70.455368 
	C354.599579,58.006245 347.002563,51.300915 336.330658,47.716850 
	C318.090729,41.591145 299.578583,41.297600 281.568573,48.244480 
	C269.067322,53.066502 260.295807,61.888683 258.986816,76.150719 
	C257.961182,87.325439 262.640625,95.884789 272.555389,100.691345 
	C281.030762,104.800140 289.970398,108.127922 298.975250,110.932190 
	C319.288940,117.258217 339.992218,122.393539 360.119476,129.240631 
	C379.529449,135.843689 394.928864,147.540146 400.065033,168.922821 
	C408.841736,205.461716 390.238770,244.564987 355.429840,258.675995 
	C320.370514,272.888489 284.469543,273.039337 249.720840,257.053528 
	C230.297073,248.117828 216.747864,233.078125 211.314209,210.893524 
	C210.669434,205.618118 210.336639,201.023041 210.003845,196.427948 
z"/>
<path fill="#2A8B36" opacity="1.000000" stroke="none" 
	d="
M209.538071,196.358002 
	C210.336639,201.023041 210.669434,205.618118 211.047028,210.652710 
	C202.597260,235.667923 185.391998,251.725067 161.209152,259.871429 
	C133.221786,269.299408 104.744240,268.942505 76.769402,259.734467 
	C49.956875,250.908966 30.736826,232.624283 20.066906,206.843475 
	C0.872396,160.465408 0.420429,113.177185 20.010691,66.948502 
	C35.654739,30.032015 65.684929,11.479291 105.275520,7.907671 
	C124.731277,6.152494 143.897354,7.349535 162.418045,13.992997 
	C178.115082,19.623602 191.505966,28.666513 201.653687,42.095684 
	C209.323914,52.246235 213.084991,63.687325 212.804077,76.750656 
	C199.119827,76.750656 185.699799,76.750656 171.727509,76.750656 
	C172.244965,66.999367 168.567719,58.989773 161.236298,52.626766 
	C153.051819,45.523392 143.157486,43.074478 132.733658,41.964802 
	C111.221222,39.674675 91.700340,44.026905 75.159897,58.817600 
	C61.153732,71.342110 54.611347,87.600769 51.694317,105.592766 
	C47.543201,131.196533 47.559223,156.753555 55.021572,181.789841 
	C65.601463,217.285568 97.350136,237.084579 134.000092,231.541138 
	C137.937943,230.945541 141.894379,230.220703 145.707947,229.099304 
	C161.629868,224.417358 170.102875,214.078583 172.123474,197.258820 
	C172.652176,196.870224 172.767441,196.755951 172.807251,196.565521 
	C184.895599,196.473038 196.983948,196.380554 209.538071,196.358002 
z"/>
<path fill="#4ABF36" opacity="1.000000" stroke="none" 
	d="
M172.664642,196.460190 
	C172.767441,196.755951 172.652176,196.870224 172.334534,196.896851 
	C172.113419,196.590256 172.218246,196.413422 172.664642,196.460190 
z"/>
</svg>